<?xml version="1.0" encoding="UTF-8"?>
<svg version="1.1" xmlns="http://www.w3.org/2000/svg" width="240" height="240">
<path d="M0 0 C0.64973042 -0.00297112 1.29946084 -0.00594224 1.96888006 -0.0090034 C4.14425467 -0.01766914 6.31957411 -0.01919686 8.4949646 -0.02069092 C10.05566525 -0.02532072 11.61636478 -0.0303456 13.17706299 -0.03573608 C17.41703134 -0.0488493 21.65698386 -0.05530331 25.89696932 -0.05974674 C28.5484148 -0.06268012 31.19985598 -0.0667855 33.85129929 -0.07125092 C42.15401045 -0.08492501 50.45671175 -0.09459125 58.75943339 -0.09845281 C68.33018131 -0.10292897 77.90078609 -0.12045667 87.4714905 -0.1494534 C94.87718929 -0.17110828 102.28284792 -0.18115917 109.68857801 -0.18249393 C114.10766377 -0.18353953 118.52661496 -0.18939465 122.94566727 -0.20731354 C127.10715607 -0.22385942 131.26841011 -0.2259183 135.4299202 -0.21717453 C136.95120881 -0.21640754 138.47251039 -0.2207019 139.99376678 -0.23063278 C156.40317905 -0.33140851 168.13088908 3.41518213 180.21908569 14.75372314 C188.56924048 23.44528119 193.62164045 34.56242448 193.65249634 46.62838745 C193.65546746 47.27811787 193.65843858 47.92784829 193.66149974 48.59726751 C193.67016548 50.77264212 193.6716932 52.94796156 193.67318726 55.12335205 C193.67781705 56.6840527 193.68284193 58.24475223 193.68823242 59.80545044 C193.70134563 64.04541879 193.70779965 68.28537131 193.71224308 72.52535677 C193.71517645 75.17680225 193.71928184 77.82824343 193.72374725 80.47968674 C193.73742135 88.7823979 193.74708759 97.0850992 193.75094914 105.38782084 C193.7554253 114.95856876 193.77295301 124.52917354 193.80194974 134.09987795 C193.82360462 141.50557674 193.83365551 148.91123537 193.83499026 156.31696546 C193.83603586 160.73605122 193.84189098 165.15500241 193.85980988 169.57405472 C193.87635576 173.73554352 193.87841464 177.89679756 193.86967087 182.05830765 C193.86890388 183.57959626 193.87319823 185.10089784 193.88312912 186.62215424 C193.98390485 203.0315665 190.2373142 214.75927653 178.89877319 226.84747314 C170.20721515 235.19762793 159.09007186 240.25002791 147.02410889 240.28088379 C146.37437847 240.28385491 145.72464805 240.28682603 145.05522883 240.28988719 C142.87985422 240.29855293 140.70453478 240.30008065 138.52914429 240.30157471 C136.96844363 240.30620451 135.40774411 240.31122938 133.8470459 240.31661987 C129.60707755 240.32973309 125.36712503 240.3361871 121.12713957 240.34063053 C118.47569409 240.34356391 115.82425291 240.34766929 113.1728096 240.3521347 C104.87009844 240.3658088 96.56739714 240.37547504 88.2646755 240.3793366 C78.69392758 240.38381276 69.1233228 240.40134046 59.55261838 240.43033719 C52.1469196 240.45199207 44.74126097 240.46204296 37.33553088 240.46337771 C32.91644512 240.46442332 28.49749393 240.47027844 24.07844162 240.48819733 C19.91695282 240.50474321 15.75569878 240.50680209 11.59418869 240.49805832 C10.07290007 240.49729133 8.5515985 240.50158568 7.0303421 240.51151657 C-9.37907016 240.6122923 -21.10678019 236.86570166 -33.19497681 225.52716064 C-41.54513159 216.8356026 -46.59753157 205.71845931 -46.62838745 193.65249634 C-46.63135857 193.00276592 -46.6343297 192.3530355 -46.63739085 191.68361628 C-46.64605659 189.50824167 -46.64758431 187.33292223 -46.64907837 185.15753174 C-46.65370817 183.59683108 -46.65873305 182.03613156 -46.66412354 180.47543335 C-46.67723675 176.235465 -46.68369077 171.99551248 -46.68813419 167.75552702 C-46.69106757 165.10408154 -46.69517295 162.45264036 -46.69963837 159.80119705 C-46.71331246 151.49848589 -46.7229787 143.19578459 -46.72684026 134.89306295 C-46.73131642 125.32231503 -46.74884412 115.75171025 -46.77784085 106.18100584 C-46.79949573 98.77530705 -46.80954662 91.36964842 -46.81088138 83.96391833 C-46.81192698 79.54483257 -46.8177821 75.12588138 -46.83570099 70.70682907 C-46.85224688 66.54534027 -46.85430575 62.38408623 -46.84556198 58.22257614 C-46.84479499 56.70128752 -46.84908935 55.17998595 -46.85902023 53.65872955 C-46.95979597 37.24931729 -43.21320532 25.52160726 -31.87466431 13.43341064 C-23.18310626 5.08325586 -12.06596297 0.03085588 0 0 Z M6.51205444 37.14044189 C2.39826526 42.44506479 0.96180397 46.42738614 1.51205444 53.14044189 C3.69961973 59.5129147 6.94837965 63.0616316 12.76205444 66.45294189 C18.17593769 67.80641271 22.89384941 66.9648105 27.82455444 64.45294189 C32.52378806 60.40941529 35.21669054 56.15315373 35.82455444 49.95294189 C35.33680747 44.00242884 33.27253238 39.81504286 28.94955444 35.70294189 C21.63803739 31.01607199 13.19101074 32.06443511 6.51205444 37.14044189 Z M3.51205444 80.14044189 C3.51205444 116.44044189 3.51205444 152.74044189 3.51205444 190.14044189 C13.41205444 190.14044189 23.31205444 190.14044189 33.51205444 190.14044189 C33.51205444 153.84044189 33.51205444 117.54044189 33.51205444 80.14044189 C23.61205444 80.14044189 13.71205444 80.14044189 3.51205444 80.14044189 Z M53.51205444 80.14044189 C53.51205444 116.44044189 53.51205444 152.74044189 53.51205444 190.14044189 C63.41205444 190.14044189 73.31205444 190.14044189 83.51205444 190.14044189 C83.54943726 185.60165283 83.58682007 181.06286377 83.62533569 176.38653564 C83.65563135 173.5017329 83.68678947 170.61699067 83.72103882 167.73223877 C83.77525378 163.15894714 83.82636767 158.5857752 83.85848999 154.01226807 C83.88460445 150.32270367 83.92506315 146.63354386 83.97524071 142.94423103 C83.99185468 141.54056922 84.00340291 140.13683751 84.00966835 138.73309135 C84.05496554 129.51283526 84.51315259 123.59595322 89.69955444 115.89044189 C94.00918249 111.67658336 98.52040157 110.06785592 104.51205444 109.70294189 C109.09937932 109.92825255 112.87300477 111.33339717 116.51205444 114.14044189 C120.93776819 119.58494619 122.62263672 124.45059035 122.71737671 131.44781494 C122.74729454 133.39949837 122.74729454 133.39949837 122.77781677 135.39060974 C122.7947999 136.8111255 122.81167875 138.2316425 122.82846069 139.65216064 C122.84903582 141.10519495 122.87003244 142.55822335 122.89143372 144.01124573 C122.94659678 147.83343719 122.99603142 151.65568215 123.04428101 155.47796631 C123.10337615 160.06522721 123.16957238 164.65239044 123.23458099 169.23957062 C123.332518 176.206468 123.42142349 183.17342837 123.51205444 190.14044189 C133.41205444 190.14044189 143.31205444 190.14044189 153.51205444 190.14044189 C153.5703923 178.42072476 153.5703923 178.42072476 153.60971069 166.70098877 C153.62158654 161.90886917 153.63551133 157.11682723 153.66293335 152.32476807 C153.68494135 148.45382916 153.69668081 144.58297373 153.70180893 140.71197701 C153.70545526 139.2478765 153.71257247 137.78377966 153.72351456 136.3197155 C153.93476319 116.53436257 153.93476319 116.53436257 147.51205444 98.14044189 C146.93455444 97.10919189 146.35705444 96.07794189 145.76205444 95.01544189 C140.3997263 88.16357816 134.15042921 82.9946385 125.51205444 81.14044189 C111.61320564 79.48742347 100.3423573 81.91089495 89.13314819 90.61309814 C87.12824838 92.41492909 87.12824838 92.41492909 84.51205444 96.14044189 C84.18205444 90.86044189 83.85205444 85.58044189 83.51205444 80.14044189 C73.61205444 80.14044189 63.71205444 80.14044189 53.51205444 80.14044189 Z " fill="#FEFEFE" transform="translate(46.487945556640625,-0.14044189453125)"/>
</svg>
